<svg width="200" height="99" viewBox="0 0 200 99" fill="none" xmlns="http://www.w3.org/2000/svg">
<path d="M93.2754 0.667236H153.969V3.2378C153.969 3.69835 153.776 4.13161 153.444 4.43547L148.01 9.31879C147.3 10.111 146.324 10.5625 145.311 10.5625H141C141 10.5625 140.99 14.1358 140.99 16.2225C140.99 18.309 140.136 20.5619 140.136 20.5619L140.719 21.1441C141.342 20.2879 144.098 16.8921 145.928 16.8921L152.846 16.8553V25.6818L140.99 25.8199V43.1045C137.94 40.0661 134.879 37.0371 131.834 33.9924V17.4542C131.834 14.9916 132.381 12.9882 132.883 10.788L132.884 10.7835L132.888 10.7695L132.891 10.7558C132.896 10.7387 132.9 10.7237 132.899 10.7074C132.898 10.6942 132.894 10.6802 132.884 10.6639C132.822 10.5698 132.564 10.4759 132.319 10.4289C132.131 10.3931 131.951 10.3846 131.871 10.4244C130.556 11.0653 129.16 11.3046 127.712 11.3292C124.987 11.3752 122.255 11.3747 119.53 11.3292C118.083 11.3045 116.687 11.0648 115.374 10.4244C115.189 10.3322 114.471 10.4979 114.36 10.6639C114.333 10.7099 114.351 10.7375 114.36 10.7835L114.362 10.788C114.864 12.9873 115.41 15.0131 115.41 17.4542V33.9924C112.366 37.0371 109.305 40.0661 106.254 43.1045V25.8199L94.3992 25.6818V16.8553L101.317 16.8921C103.147 16.8921 105.903 20.2879 106.526 21.1441L107.108 20.5619C107.108 20.5619 106.254 18.309 106.254 16.2225C106.254 14.1358 106.245 10.5625 106.245 10.5625H101.934C100.921 10.5625 99.9445 10.111 99.2352 9.31879L93.8004 4.43547C93.4689 4.13161 93.2754 3.69835 93.2754 3.2378V0.667236Z" fill="white"/>
<path fill-rule="evenodd" clip-rule="evenodd" d="M74.7228 28.2549C60.6842 28.2549 49.2282 37.1303 49.2282 50.1501C49.2282 63.1698 60.5234 71.9884 74.7228 71.9884C88.9221 71.9884 100.217 63.0657 100.217 50.1501C100.217 37.2344 88.7613 28.2549 74.7228 28.2549ZM74.7795 37.2438C83.4921 37.2438 89.783 42.9967 89.783 50.1501C89.783 57.521 83.1705 63.009 74.7795 63.009C66.3885 63.009 59.6152 57.6251 59.6152 50.1501C59.6152 42.675 66.0669 37.2438 74.7795 37.2438Z" fill="white"/>
<path fill-rule="evenodd" clip-rule="evenodd" d="M0.5 29.1159V71.0801H20.6119C35.2464 71.0801 43.9023 62.3088 43.9023 49.8283C43.9023 38.4739 36.8073 29.1159 20.0254 29.1159H0.5ZM19.4294 62.252C16.6387 62.252 13.5642 62.252 10.2343 63.7565V63.766L9.10856 62.6873C11.256 54.3985 11.1992 45.8448 9.05181 37.0262L10.2343 36.4869C13.025 37.9346 15.2386 37.9346 17.5468 37.9346C23.8944 37.9346 33.5247 37.9346 33.5247 50.2541C33.5247 60.5299 26.4203 62.252 19.4294 62.252Z" fill="white"/>
<path fill-rule="evenodd" clip-rule="evenodd" d="M148.51 50.1501C148.51 37.1303 159.966 28.2549 174.005 28.2549C188.044 28.2549 199.499 37.2344 199.499 50.1501C199.499 63.0657 188.204 71.9884 174.005 71.9884C159.806 71.9884 148.51 63.1698 148.51 50.1501ZM189.065 50.1501C189.065 42.9967 182.774 37.2438 174.062 37.2438C165.349 37.2438 158.897 42.675 158.897 50.1501C158.897 57.6251 165.671 63.009 174.062 63.009C182.453 63.009 189.065 57.521 189.065 50.1501Z" fill="white"/>
<path d="M106.366 55.7484L141.264 55.7957V81.0783C141.264 85.762 141.264 98.6682 124.756 98.6682C114.436 98.6682 106.366 93.2938 106.366 83.8791V76.7447H116.157V82.4787C116.157 86.4622 119.222 89.6888 124.274 89.6888C130.886 89.6888 131.426 85.3268 131.426 82.4219V71.5406C131.426 68.7417 131.925 66.5163 132.807 63.8668C132.816 63.8385 132.807 63.8195 132.778 63.8101C132.561 63.7139 131.709 63.1572 131.501 63.2613C129.121 64.4929 126.56 64.7941 123.924 64.7941H106.366V55.7484Z" fill="white"/>
<path d="M123.815 50.5657C126.974 50.5657 129.535 48.0041 129.535 44.8441C129.535 41.6842 126.974 39.1226 123.815 39.1226C120.656 39.1226 118.095 41.6842 118.095 44.8441C118.095 48.0041 120.656 50.5657 123.815 50.5657Z" fill="#FF2F42"/>
</svg>
